<svg width="563" height="392" viewBox="0 0 563 392" fill="none" xmlns="http://www.w3.org/2000/svg">
<path d="M80.1 59.25V82.65H37.8V101.25H69V123.6H37.8V165H8.4V59.25H80.1ZM121.882 54V165H92.482V54H121.882ZM177.775 166.05C169.375 166.05 161.825 164.3 155.125 160.8C148.525 157.3 143.325 152.3 139.525 145.8C135.725 139.3 133.825 131.65 133.825 122.85C133.825 114.15 135.725 106.55 139.525 100.05C143.425 93.55 148.675 88.55 155.275 85.05C161.975 81.55 169.525 79.8 177.925 79.8C186.325 79.8 193.825 81.55 200.425 85.05C207.125 88.55 212.375 93.55 216.175 100.05C220.075 106.55 222.025 114.15 222.025 122.85C222.025 131.55 220.075 139.2 216.175 145.8C212.375 152.3 207.125 157.3 200.425 160.8C193.725 164.3 186.175 166.05 177.775 166.05ZM177.775 140.55C181.875 140.55 185.275 139.05 187.975 136.05C190.775 132.95 192.175 128.55 192.175 122.85C192.175 117.15 190.775 112.8 187.975 109.8C185.275 106.8 181.925 105.3 177.925 105.3C173.925 105.3 170.575 106.8 167.875 109.8C165.175 112.8 163.825 117.15 163.825 122.85C163.825 128.65 165.125 133.05 167.725 136.05C170.325 139.05 173.675 140.55 177.775 140.55ZM358.336 80.85L336.886 165H303.886L292.186 114L280.036 165H247.186L225.886 80.85H255.136L264.586 136.65L277.036 80.85H308.536L321.436 136.8L330.736 80.85H358.336Z" fill="#5658DD"/>
<path d="M48.3 332.05C36 332.05 25.9 329.15 18 323.35C10.1 317.45 5.85 309.05 5.25 298.15H36.6C36.9 301.85 38 304.55 39.9 306.25C41.8 307.95 44.25 308.8 47.25 308.8C49.95 308.8 52.15 308.15 53.85 306.85C55.65 305.45 56.55 303.55 56.55 301.15C56.55 298.05 55.1 295.65 52.2 293.95C49.3 292.25 44.6 290.35 38.1 288.25C31.2 285.95 25.6 283.75 21.3 281.65C17.1 279.45 13.4 276.3 10.2 272.2C7.1 268 5.55 262.55 5.55 255.85C5.55 249.05 7.25 243.25 10.65 238.45C14.05 233.55 18.75 229.85 24.75 227.35C30.75 224.85 37.55 223.6 45.15 223.6C57.45 223.6 67.25 226.5 74.55 232.3C81.95 238 85.9 246.05 86.4 256.45H54.45C54.35 253.25 53.35 250.85 51.45 249.25C49.65 247.65 47.3 246.85 44.4 246.85C42.2 246.85 40.4 247.5 39 248.8C37.6 250.1 36.9 251.95 36.9 254.35C36.9 256.35 37.65 258.1 39.15 259.6C40.75 261 42.7 262.25 45 263.35C47.3 264.35 50.7 265.65 55.2 267.25C61.9 269.55 67.4 271.85 71.7 274.15C76.1 276.35 79.85 279.5 82.95 283.6C86.15 287.6 87.75 292.7 87.75 298.9C87.75 305.2 86.15 310.85 82.95 315.85C79.85 320.85 75.3 324.8 69.3 327.7C63.4 330.6 56.4 332.05 48.3 332.05ZM151.068 305.95V331H138.318C116.818 331 106.068 320.35 106.068 299.05V271.3H95.7176V246.85H106.068V226.45H135.618V246.85H150.918V271.3H135.618V299.5C135.618 301.8 136.118 303.45 137.118 304.45C138.218 305.45 140.018 305.95 142.518 305.95H151.068ZM159.752 288.85C159.752 280.15 161.302 272.55 164.402 266.05C167.602 259.55 171.902 254.55 177.302 251.05C182.802 247.55 188.902 245.8 195.602 245.8C201.402 245.8 206.402 246.95 210.602 249.25C214.802 251.55 218.052 254.65 220.352 258.55V246.85H249.752V331H220.352V319.3C218.052 323.2 214.752 326.3 210.452 328.6C206.252 330.9 201.302 332.05 195.602 332.05C188.902 332.05 182.802 330.3 177.302 326.8C171.902 323.3 167.602 318.3 164.402 311.8C161.302 305.2 159.752 297.55 159.752 288.85ZM220.352 288.85C220.352 283.45 218.852 279.2 215.852 276.1C212.952 273 209.352 271.45 205.052 271.45C200.652 271.45 197.002 273 194.102 276.1C191.202 279.1 189.752 283.35 189.752 288.85C189.752 294.25 191.202 298.55 194.102 301.75C197.002 304.85 200.652 306.4 205.052 306.4C209.352 306.4 212.952 304.85 215.852 301.75C218.852 298.65 220.352 294.35 220.352 288.85ZM261.705 288.85C261.705 280.15 263.505 272.55 267.105 266.05C270.705 259.55 275.705 254.55 282.105 251.05C288.605 247.55 296.005 245.8 304.305 245.8C315.005 245.8 324.005 248.75 331.305 254.65C338.605 260.45 343.305 268.6 345.405 279.1H314.205C312.405 273.6 308.905 270.85 303.705 270.85C300.005 270.85 297.055 272.4 294.855 275.5C292.755 278.5 291.705 282.95 291.705 288.85C291.705 294.75 292.755 299.25 294.855 302.35C297.055 305.45 300.005 307 303.705 307C309.005 307 312.505 304.25 314.205 298.75H345.405C343.305 309.15 338.605 317.3 331.305 323.2C324.005 329.1 315.005 332.05 304.305 332.05C296.005 332.05 288.605 330.3 282.105 326.8C275.705 323.3 270.705 318.3 267.105 311.8C263.505 305.3 261.705 297.65 261.705 288.85ZM410.269 331L387.019 296.5V331H357.619V220H387.019V279.85L410.269 246.85H445.519L412.369 289.15L446.119 331H410.269Z" fill="#5658DD"/>
<path d="M550.781 151.011C557.284 151.005 562.561 156.196 562.567 162.604L562.663 192.666L562.692 222.728C562.698 229.137 557.364 234.337 550.861 234.343L520.358 234.371L489.855 234.4C483.352 234.406 478.075 229.215 478.069 222.806L478.011 162.683C478.005 156.274 483.272 151.074 489.775 151.068L550.781 151.011Z" fill="#5658DD"/>
<path d="M550.781 248.011C557.284 248.005 562.561 253.196 562.567 259.604L562.663 289.666L562.692 319.728C562.698 326.137 557.364 331.337 550.861 331.343L520.358 331.371L489.855 331.4C483.352 331.406 478.075 326.215 478.069 319.806L478.011 259.683C478.005 253.274 483.272 248.074 489.775 248.068L550.781 248.011Z" fill="#5658DD"/>
<path d="M550.781 54.0111C557.284 54.005 562.561 59.1955 562.567 65.6045L562.663 95.6663L562.692 125.728C562.698 132.137 557.364 137.337 550.861 137.343L520.358 137.371L489.855 137.4C483.352 137.406 478.075 132.215 478.069 125.806L478.011 65.6834C478.005 59.2744 483.272 54.074 489.775 54.068L550.781 54.0111Z" fill="#5658DD"/>
<path d="M523.219 114L506 96L523.219 78H534L516.706 96L534 114H523.219Z" fill="white"/>
<path d="M516.781 272L534 290L516.781 308H506L523.294 290L506 272H516.781Z" fill="white"/>
<path d="M539.365 172.63L510.992 212.626L501.184 212.087L529.675 172.098L539.365 172.63Z" fill="white"/>
</svg>
