<svg width="512" height="505" viewBox="0 0 512 505" fill="none" xmlns="http://www.w3.org/2000/svg">
<path d="M471.296 388.424C443.46 387.73 421.886 390.514 403.792 398.168C398.572 400.254 390.22 400.256 389.524 406.868C392.308 409.652 392.656 414.176 395.092 418.002C399.272 424.96 406.574 434.356 413.186 439.23C420.492 444.796 427.802 450.362 435.454 455.234C449.026 463.586 464.338 468.456 477.56 476.808C485.218 481.676 492.868 487.944 500.524 493.162C504.352 495.942 506.786 500.47 511.66 502.208V501.166C509.222 498.032 508.526 493.51 506.092 490.03C502.616 486.55 499.132 483.418 495.652 479.938C485.562 466.37 473.036 454.538 459.466 444.796C448.332 437.14 423.972 426.702 419.45 413.826C419.45 413.826 419.1 413.48 418.754 413.132C426.408 412.436 435.454 409.652 442.764 407.564C454.594 404.43 465.38 405.128 477.56 401.996C483.126 400.604 488.694 398.864 494.26 397.124V393.994C488 387.73 483.476 379.38 476.864 373.464C459.118 358.15 439.63 343.19 419.45 330.664C408.662 323.704 394.742 319.18 383.26 313.266C379.088 311.176 372.126 310.134 369.692 306.654C363.426 299 359.946 288.91 355.424 279.862C345.336 260.722 335.59 239.498 326.89 219.318C320.63 205.746 316.802 192.174 309.146 179.65C273.306 120.496 234.334 84.6559 174.486 49.5099C161.61 42.2039 146.3 39.0719 129.946 35.2459C121.25 34.8959 112.548 34.2019 103.85 33.8519C98.282 31.4159 92.714 24.806 87.842 21.674C68.012 9.14596 16.858 -17.992 2.24397 17.848C-7.15203 40.4639 16.164 62.7319 24.164 74.2179C30.084 82.2199 37.736 91.2659 41.912 100.314C44.348 106.226 45.042 112.494 47.478 118.756C53.048 134.062 58.264 151.116 65.574 165.384C69.402 172.69 73.576 180.344 78.448 186.956C81.232 190.782 86.102 192.524 87.148 198.786C82.278 205.746 81.928 216.186 79.142 224.884C66.616 264.204 71.49 312.918 89.234 341.798C94.8 350.494 108.024 369.638 125.77 362.328C141.43 356.066 137.95 336.232 142.47 318.834C143.518 314.654 142.822 311.874 144.908 309.09V309.788C149.78 319.528 154.65 328.926 159.174 338.668C169.962 355.716 188.75 373.464 204.408 385.296C212.762 391.556 219.372 402.344 229.812 406.172V405.126H229.114C227.026 401.994 223.894 400.604 221.112 398.166C214.85 391.906 207.888 384.25 203.018 377.29C188.406 357.802 175.528 336.23 164.046 313.96C158.48 303.176 153.606 291.344 149.084 280.558C146.994 276.378 146.994 270.118 143.516 268.032C138.296 275.686 130.642 282.298 126.814 291.692C120.206 306.654 119.508 325.096 117.072 344.232C115.68 344.584 116.374 344.232 115.678 344.932C104.546 342.144 100.718 330.664 96.54 320.92C86.1 296.216 84.36 256.548 93.41 228.016C95.846 220.708 106.286 197.744 102.11 190.784C100.022 184.172 93.06 180.344 89.234 175.126C84.712 168.514 79.838 160.166 76.708 152.856C68.356 133.37 64.18 111.796 55.134 92.3099C50.958 83.2619 43.654 73.8699 37.736 65.5179C31.126 56.1239 23.818 49.5099 18.598 38.3759C16.86 34.5499 14.422 28.286 17.206 24.11C17.902 21.326 19.292 20.284 22.078 19.588C26.602 15.758 39.478 20.63 43.998 22.718C56.874 27.934 67.66 32.8099 78.448 40.1159C83.318 43.5959 88.538 50.2079 94.8 51.9479H102.108C113.244 54.3819 125.768 52.6439 136.208 55.7739C154.652 61.6879 171.352 70.3879 186.316 79.7839C231.9 108.664 269.476 149.724 294.88 198.786C299.056 206.786 300.794 214.098 304.622 222.446C311.932 239.498 320.978 256.896 328.282 273.598C335.59 289.95 342.548 306.654 352.988 320.226C358.208 327.53 379.084 331.36 388.48 335.188C395.44 338.318 406.228 341.104 412.49 344.93C424.32 352.234 436.15 360.59 447.286 368.59C452.854 372.766 470.25 381.466 471.296 388.424V388.424Z" fill="#6163FF"/>
<path d="M116.372 86.044C110.458 86.044 106.284 86.744 102.108 87.786V88.482H102.804C105.59 94.05 110.458 97.878 113.936 102.748C116.722 108.314 119.156 113.884 121.942 119.452C122.288 119.102 122.636 118.756 122.636 118.756C127.51 115.274 129.944 109.708 129.944 101.356C127.856 98.922 127.508 96.486 125.768 94.05C123.682 90.568 119.156 88.83 116.372 86.044V86.044Z" fill="#6163FF"/>
</svg>
